# xmcd
#
# Track frame offsets: 
#        150
#        14562
#        34827
#        53027
#        67415
#        83555
#        102250
#        117302
#        134402
#        154857
#        166570
#        188475
#
# Disc length: 2746 seconds
#
# Revision: 0
# Processed by: cddbd v1.5.2PL0 Copyright (c) Steve Scherf et al.
# Submitted via: ExactAudioCopy v0.99pb5
#
DISCID=990ab80c
DTITLE=West End Blues Band - Beantown Drive (With Some Backseat Driver
DTITLE=s)
DYEAR=1996
DGENRE=Blues
TTITLE0=Roosterneck Strut
TTITLE1=Howlin' For My Darling
TTITLE2=Flip, Flop and Fly
TTITLE3=Checking Out
TTITLE4=Beantown Drive
TTITLE5=Hard Hearted Woman
TTITLE6=I'm A Jealous Man
TTITLE7=Don't Loose Your Cool
TTITLE8=Bright Lights, Big City
TTITLE9=Give It Time
TTITLE10=Tell Me
TTITLE11=West Side Soul
EXTD=
EXTT0=
EXTT1=
EXTT2=
EXTT3=
EXTT4=
EXTT5=
EXTT6=
EXTT7=
EXTT8=
EXTT9=
EXTT10=
EXTT11=
PLAYORDER=
